<svg xmlns="http://www.w3.org/2000/svg" width="49" height="49" viewBox="0 0 49 49">
  <g id="Group_980" data-name="Group 980" transform="translate(-2360 527)">
    <circle id="Ellipse_66" data-name="Ellipse 66" cx="24.5" cy="24.5" r="24.5" transform="translate(2360 -527)" fill="#c26e6e"/>
    <path id="Path_151" data-name="Path 151" d="M20.758,13.89a.658.658,0,0,0-.658.658.667.667,0,0,0,.658.658h4.114a1.664,1.664,0,0,1-1.508.987h-2.3a.674.674,0,0,0-.617.411.7.7,0,0,0,.137.727L25.2,21.953a.662.662,0,0,0,.932,0,.654.654,0,0,0,0-.932l-1.385-1.4-2.084-2.1h.713a2.325,2.325,0,0,0,.315-.014,2.979,2.979,0,0,0,2.578-2.29h1.371a.658.658,0,0,0,.658-.658.667.667,0,0,0-.658-.658H26.271a3.169,3.169,0,0,0-.425-.987h1.8a.658.658,0,0,0,.658-.658.667.667,0,0,0-.658-.658H20.758a.658.658,0,0,0-.658.658.667.667,0,0,0,.658.658h2.619a1.664,1.664,0,0,1,1.508.987H20.758Z" transform="translate(2358.9 -518.473)" fill="#fff"/>
    <g id="Group_978" data-name="Group 978" transform="translate(2360 -1474.278)">
      <path id="Path_267" data-name="Path 267" d="M19.138,959.406a.935.935,0,0,0-.565.273l-5.3,5.3a.936.936,0,0,0-.273.663v15.91a.936.936,0,0,0,.935.936H25.783a.936.936,0,0,0,0-1.872H14.871V966.582h4.365a.936.936,0,0,0,.935-.936v-4.368h9.665v13.415a.935.935,0,1,0,1.871,0V960.342a.936.936,0,0,0-.935-.936H19.236a.926.926,0,0,0-.1,0Zm-.838,3.188v2.116H16.186Zm13.338,13.658a.935.935,0,0,0-.624.3l-3.43,3.744a.936.936,0,1,0,1.384,1.258l1.8-1.969V985.3a.935.935,0,1,0,1.871,0v-5.713l1.8,1.969a.936.936,0,1,0,1.384-1.258l-3.43-3.744a.935.935,0,0,0-.76-.3Z" transform="translate(0 0)" fill="#fff"/>
    </g>
  </g>
</svg>
