<svg xmlns="http://www.w3.org/2000/svg" width="49" height="49" viewBox="0 0 49 49">
  <g id="Group_971" data-name="Group 971" transform="translate(-2360 1133)">
    <circle id="Ellipse_60" data-name="Ellipse 60" cx="24.5" cy="24.5" r="24.5" transform="translate(2360 -1133)" fill="#45adaa"/>
    <path id="Path_253" data-name="Path 253" d="M17.918,958.362a1.954,1.954,0,0,0-2.044,2.065v9.516a1.936,1.936,0,0,0,2.044,2.044h2.6a7.552,7.552,0,0,1-1.8,4.034.681.681,0,0,0,.969.937l6.631-4.971h7.611a1.936,1.936,0,0,0,2.044-2.044v-9.516a1.954,1.954,0,0,0-2.044-2.065Zm0,1.363H33.927a.667.667,0,0,1,.5.16.69.69,0,0,1,.181.543v9.516a.642.642,0,0,1-.17.522.706.706,0,0,1-.511.16H26.093a.687.687,0,0,0-.4.128l-4.258,3.193a12.292,12.292,0,0,0,.564-2.555.711.711,0,0,0-.671-.766H17.918a.706.706,0,0,1-.511-.16.642.642,0,0,1-.17-.522v-9.516a.69.69,0,0,1,.181-.543.667.667,0,0,1,.5-.16Zm6.408,1.7a.682.682,0,1,0,.064,1.362h7.493a.681.681,0,1,0,0-1.362H24.326Zm-4.087,3.066a.682.682,0,1,0,.064,1.362H31.883a.681.681,0,1,0,0-1.362H20.238Zm0,3.066a.682.682,0,1,0,.064,1.363H31.883a.681.681,0,1,0,0-1.363H20.238Zm-8.451,5.45a3.747,3.747,0,1,0,3.747,3.747A3.757,3.757,0,0,0,11.787,973.009Zm0,1.363A2.384,2.384,0,1,1,9.4,976.756,2.374,2.374,0,0,1,11.787,974.372Zm0,7.494A5.972,5.972,0,0,0,6,987.6a.71.71,0,0,0,.681.734H16.9a.711.711,0,0,0,.681-.734,5.972,5.972,0,0,0-5.79-5.737Zm0,1.362a4.479,4.479,0,0,1,4.247,3.747H7.54A4.479,4.479,0,0,1,11.787,983.228Z" transform="translate(2364.005 -2081.362)" fill="#fff" stroke="#fff" stroke-width="0.2"/>
  </g>
</svg>
