<svg xmlns="http://www.w3.org/2000/svg" width="49" height="49" viewBox="0 0 49 49">
  <g id="Group_981" data-name="Group 981" transform="translate(-2360 356)">
    <circle id="Ellipse_69" data-name="Ellipse 69" cx="24.5" cy="24.5" r="24.5" transform="translate(2360 -356)" fill="#446c9a"/>
    <path id="_0" data-name="0" d="M442.257-799.2H425.985A1.987,1.987,0,0,0,424-797.215v.8l-4.065.619a1.956,1.956,0,0,0-1.29.779,1.954,1.954,0,0,0-.38,1.275l-4.379,1.364a1.987,1.987,0,0,0-1.3,2.485l6.608,21.212a1.972,1.972,0,0,0,.972,1.167,1.975,1.975,0,0,0,.92.228,1.994,1.994,0,0,0,.593-.091l15.535-4.839.049-.017,2.475-.377a1.954,1.954,0,0,0,.929-.406h1.594A1.987,1.987,0,0,0,444.242-775v-22.217A1.987,1.987,0,0,0,442.257-799.2Zm-20.925,30.725a.826.826,0,0,1-.634-.058.826.826,0,0,1-.407-.489l-6.607-21.212a.832.832,0,0,1,.546-1.041l4.2-1.309,3.156,20.746a1.956,1.956,0,0,0,.78,1.29,1.955,1.955,0,0,0,1.163.383,2,2,0,0,0,.3-.023l5.857-.891Zm2.326-2.852a.81.81,0,0,1-.606-.149.81.81,0,0,1-.323-.534l-3.3-21.715a.81.81,0,0,1,.149-.606.81.81,0,0,1,.534-.323l3.892-.592V-775a1.987,1.987,0,0,0,1.985,1.985h8.752ZM443.088-775a.832.832,0,0,1-.831.831H425.985a.832.832,0,0,1-.831-.831v-22.217a.832.832,0,0,1,.831-.831h16.272a.832.832,0,0,1,.831.831Zm-7.872-3.471h-7.823a.577.577,0,0,0-.577.577.577.577,0,0,0,.577.577h7.823a.577.577,0,0,0,.577-.577A.577.577,0,0,0,435.217-778.469Zm5.632-3.286H427.394a.577.577,0,0,0-.577.577.577.577,0,0,0,.577.577h13.455a.577.577,0,0,0,.577-.577A.577.577,0,0,0,440.849-781.755Zm0-13.143H427.394a.577.577,0,0,0-.577.577.577.577,0,0,0,.577.577h13.455a.577.577,0,0,0,.577-.577A.577.577,0,0,0,440.849-794.9Zm0,3.286H427.394a.577.577,0,0,0-.577.577.577.577,0,0,0,.577.577h13.455a.577.577,0,0,0,.577-.577A.577.577,0,0,0,440.849-791.612Zm0,6.571H427.394a.577.577,0,0,0-.577.577.577.577,0,0,0,.577.577h13.455a.577.577,0,0,0,.577-.577A.577.577,0,0,0,440.849-785.041Zm0-3.286H427.394a.577.577,0,0,0-.577.577.577.577,0,0,0,.577.577h13.455a.577.577,0,0,0,.577-.577A.577.577,0,0,0,440.849-788.326Z" transform="translate(1953.758 453.221)" fill="#fff" stroke="#fff" stroke-width="0.2"/>
  </g>
</svg>
