<svg xmlns="http://www.w3.org/2000/svg" width="49" height="49" viewBox="0 0 49 49">
  <g id="Group_979" data-name="Group 979" transform="translate(-2360 442)">
    <circle id="Ellipse_69" data-name="Ellipse 69" cx="24.5" cy="24.5" r="24.5" transform="translate(2360 -442)" fill="#ab9754"/>
    <g id="Group_976" data-name="Group 976" transform="translate(2360 -1388.278)">
      <path id="Path_267" data-name="Path 267" d="M19.138,959.406a.935.935,0,0,0-.565.273l-5.3,5.3a.936.936,0,0,0-.273.663v15.91a.936.936,0,0,0,.935.936H25.783a.936.936,0,0,0,0-1.872H14.871V966.582h4.365a.936.936,0,0,0,.935-.936v-4.368h9.665v13.415a.935.935,0,1,0,1.871,0V960.342a.936.936,0,0,0-.935-.936H19.236a.926.926,0,0,0-.1,0Zm-.838,3.188v2.116H16.186Zm13.338,13.658a.935.935,0,0,0-.624.3l-3.43,3.744a.936.936,0,1,0,1.384,1.258l1.8-1.969V985.3a.935.935,0,1,0,1.871,0v-5.713l1.8,1.969a.936.936,0,1,0,1.384-1.258l-3.43-3.744a.935.935,0,0,0-.76-.3Z" transform="translate(0 0)" fill="#fff"/>
    </g>
    <g id="Group_977" data-name="Group 977" transform="translate(185.885 143)">
      <path id="Path_125" data-name="Path 125" d="M12.453,1028.36c-.243,0-.439.267-.439.6s.2.6.439.6h9.655c.243,0,.439-.267.439-.6s-.2-.6-.439-.6Z" transform="translate(2179.768 -1591.041)" fill="#fff" stroke="#fff" stroke-width="0.5" fill-rule="evenodd"/>
      <path id="Path_126" data-name="Path 126" d="M12.453,1034.36c-.243,0-.439.267-.439.6s.2.6.439.6h9.655c.243,0,.439-.267.439-.6s-.2-.6-.439-.6Z" transform="translate(2179.768 -1593.461)" fill="#fff" stroke="#fff" stroke-width="0.5" fill-rule="evenodd"/>
      <path id="Path_127" data-name="Path 127" d="M12.453,1040.36c-.243,0-.439.267-.439.6s.2.6.439.6h9.655c.243,0,.439-.267.439-.6s-.2-.6-.439-.6Z" transform="translate(2179.768 -1595.881)" fill="#fff" stroke="#fff" stroke-width="0.5" fill-rule="evenodd"/>
    </g>
  </g>
</svg>
