<svg xmlns="http://www.w3.org/2000/svg" width="49" height="49" viewBox="0 0 49 49">
  <g id="Group_968" data-name="Group 968" transform="translate(-2360 697)">
    <circle id="Ellipse_65" data-name="Ellipse 65" cx="24.5" cy="24.5" r="24.5" transform="translate(2360 -697)" fill="#3eb501"/>
    <g id="Group_959" data-name="Group 959" transform="translate(2371 -688)">
      <g id="Group_630" data-name="Group 630" transform="translate(0 0)">
        <g id="Group_629" data-name="Group 629" transform="translate(0 0)">
          <path id="Path_155" data-name="Path 155" d="M33.312,20.623A7.312,7.312,0,1,0,26,13.312,7.333,7.333,0,0,0,33.312,20.623Zm0-13.294a5.982,5.982,0,1,1-5.982,5.982A6,6,0,0,1,33.312,7.329Z" transform="translate(-19.353 -6)" fill="#fff" stroke="#fff" stroke-width="0.6"/>
          <path id="Path_156" data-name="Path 156" d="M7.994,62.025H31.923a2,2,0,0,0,1.994-1.994v-4.62a7.382,7.382,0,0,0-6.182-7.245h0L27.4,48.1l-.233.233a10.117,10.117,0,0,1-7.212,3.058,9.929,9.929,0,0,1-7.179-3.058l-.233-.233-.332.066h0A7.355,7.355,0,0,0,6,55.412v4.62A2,2,0,0,0,7.994,62.025Zm-.665-6.614a6.077,6.077,0,0,1,4.753-5.882l.066.066a.881.881,0,0,0,.2.166,1.445,1.445,0,0,0,.233.2c.066.066.133.1.2.166s.166.133.233.2.133.1.2.166.166.1.233.166a1.407,1.407,0,0,0,.233.166c.066.066.166.1.233.166a1.446,1.446,0,0,0,.233.133c.066.033.166.1.233.133s.166.1.233.133c.1.033.166.1.266.133a.833.833,0,0,1,.233.133,1,1,0,0,1,.266.133c.066.033.166.066.233.1.1.033.166.066.266.1.066.033.166.066.233.1a2.29,2.29,0,0,1,.266.1.616.616,0,0,0,.233.066.97.97,0,0,0,.3.066c.066.033.166.033.233.066.1.033.2.033.3.066.066.033.166.033.233.066.1.033.2.033.3.066.066,0,.166.033.233.033.1,0,.233.033.332.033.066,0,.133.033.233.033.133,0,.233.033.366.033h1.529a1.363,1.363,0,0,0,.366-.033c.066,0,.133-.033.233-.033s.233-.033.332-.033c.066,0,.166-.033.233-.033.1-.033.2-.033.3-.066a.616.616,0,0,0,.233-.066c.1-.033.2-.033.3-.066.066-.033.166-.033.233-.066a.97.97,0,0,1,.3-.066.616.616,0,0,1,.233-.066,2.29,2.29,0,0,0,.266-.1c.066-.033.166-.066.233-.1a2.29,2.29,0,0,0,.266-.1c.066-.033.166-.066.233-.1a1,1,0,0,0,.266-.133c.066-.033.166-.066.233-.1.1-.033.166-.1.266-.133.066-.033.166-.1.233-.133.1-.033.166-.1.266-.133a1.446,1.446,0,0,1,.233-.133c.066-.066.166-.1.233-.166.066-.033.133-.1.233-.166.066-.066.166-.1.233-.166s.133-.1.2-.166.166-.133.233-.2.133-.1.2-.166a1.446,1.446,0,0,1,.233-.2.881.881,0,0,1,.2-.166l.066-.066a5.974,5.974,0,0,1,4.852,5.849v4.62a.667.667,0,0,1-.665.665H7.994a.667.667,0,0,1-.665-.665Z" transform="translate(-6 -34.108)" fill="#fff" stroke="#fff" stroke-width="0.6"/>
        </g>
      </g>
    </g>
  </g>
</svg>
