<svg xmlns="http://www.w3.org/2000/svg" width="49" height="49" viewBox="0 0 49 49">
  <g id="Group_972" data-name="Group 972" transform="translate(-2360 1050)">
    <circle id="Ellipse_61" data-name="Ellipse 61" cx="24.5" cy="24.5" r="24.5" transform="translate(2360 -1050)" fill="#9478ec"/>
    <g id="Group_955" data-name="Group 955" transform="translate(2369 -1041)">
      <path id="Path_117" data-name="Path 117" d="M27.779,11.685H20.92V4.531A3.831,3.831,0,0,0,19.8,1.8h0A3.831,3.831,0,0,0,17.048.66H4.551A3.876,3.876,0,0,0,.68,4.531v8.331a3.876,3.876,0,0,0,3.871,3.871h.279v2.38a1.781,1.781,0,0,0,1.127,1.671,1.851,1.851,0,0,0,.668.13,1.761,1.761,0,0,0,1.262-.534l3.492-3.492v6.984a3.881,3.881,0,0,0,3.9,3.9h5.518L24.442,31.4a1.776,1.776,0,0,0,1.277.544,1.851,1.851,0,0,0,.668-.13A1.781,1.781,0,0,0,27.5,30.149v-2.38h.279A3.876,3.876,0,0,0,31.655,23.9V15.556a3.876,3.876,0,0,0-3.876-3.871ZM11.236,15.237a.748.748,0,0,0-.529.22L6.826,19.318a.264.264,0,0,1-.3.07.279.279,0,0,1-.18-.274V15.985a.748.748,0,0,0-.748-.748H4.551a2.375,2.375,0,0,1-2.375-2.375V4.531A2.375,2.375,0,0,1,4.551,2.157h12.5a2.355,2.355,0,0,1,1.676.7h0a2.355,2.355,0,0,1,.7,1.676v8.331a2.375,2.375,0,0,1-2.375,2.375Zm18.912,8.651a2.38,2.38,0,0,1-2.37,2.385H26.731a.748.748,0,0,0-.748.748v3.128a.284.284,0,0,1-.5.2l-3.876-3.856a.748.748,0,0,0-.524-.22H15.277A2.38,2.38,0,0,1,12.9,23.9V16.734h4.151A3.876,3.876,0,0,0,20.9,13.182h6.875a2.38,2.38,0,0,1,2.38,2.375Z" transform="translate(-0.68 -0.66)" fill="#fff" stroke="#fff" stroke-width="0.2"/>
      <path id="Path_118" data-name="Path 118" d="M18.233,7.9a3.867,3.867,0,0,0-.644.075,2.619,2.619,0,0,0-1.357.688.938.938,0,0,0-.05,1.3c.269.309.668.3,1.1,0a.544.544,0,0,1,.085-.065A1.5,1.5,0,0,1,18.437,9.6a.758.758,0,0,1,.708.5.678.678,0,0,1-.269.768,4.086,4.086,0,0,1-.364.274,2.1,2.1,0,0,0-.833,2.245c.1.394.289.6.534.6s.414-.19.524-.579a1.9,1.9,0,0,1,.639-1c.259-.21.539-.394.8-.6a1.951,1.951,0,0,0,.5-2.574A2.693,2.693,0,0,0,18.233,7.9Z" transform="translate(-8.331 -4.289)" fill="#fff" stroke="#fff" stroke-width="0.2"/>
      <path id="Path_119" data-name="Path 119" d="M19.821,21.416a.893.893,0,0,0-.973.943.938.938,0,0,0,.958,1,.948.948,0,0,0,1-1,.9.9,0,0,0-.983-.943Z" transform="translate(-9.783 -11.059)" fill="#fff" stroke="#fff" stroke-width="0.2"/>
      <path id="Path_120" data-name="Path 120" d="M32.073,37.09a1.1,1.1,0,1,0,1.1,1.1A1.1,1.1,0,0,0,32.073,37.09Z" transform="translate(-15.859 -18.915)" fill="#fff" stroke="#fff" stroke-width="0.2"/>
      <path id="Path_121" data-name="Path 121" d="M41.358,37.09a1.1,1.1,0,1,0,.783.321A1.1,1.1,0,0,0,41.358,37.09Z" transform="translate(-20.514 -18.915)" fill="#fff" stroke="#fff" stroke-width="0.2"/>
      <path id="Path_122" data-name="Path 122" d="M50.663,37.09a1.108,1.108,0,1,0,.791.317A1.1,1.1,0,0,0,50.663,37.09Z" transform="translate(-25.185 -18.915)" fill="#fff" stroke="#fff" stroke-width="0.2"/>
    </g>
  </g>
</svg>
