<svg xmlns="http://www.w3.org/2000/svg" width="49" height="49" viewBox="0 0 49 49">
  <g id="Group_969" data-name="Group 969" transform="translate(-2360 782)">
    <circle id="Ellipse_64" data-name="Ellipse 64" cx="24.5" cy="24.5" r="24.5" transform="translate(2360 -782)" fill="#dc64bc"/>
    <g id="Group_958" data-name="Group 958" transform="translate(2373 -772.576)">
      <path id="Path_144" data-name="Path 144" d="M24.867,18.674H1V48.853H24.867ZM1.963,47.891V19.637h21.9V47.89H1.963Zm22.9,0v0Z" transform="translate(-1 -18.674)" fill="#fff" stroke="#fff" stroke-width="0.6"/>
      <rect id="Rectangle_680" data-name="Rectangle 680" width="0.963" height="0.963" transform="translate(4.528 16.535)" fill="#fff" stroke="#fff" stroke-width="0.6"/>
      <rect id="Rectangle_681" data-name="Rectangle 681" width="13.006" height="0.963" transform="translate(6.455 16.535)" fill="#fff" stroke="#fff" stroke-width="0.6"/>
      <rect id="Rectangle_682" data-name="Rectangle 682" width="0.963" height="0.963" transform="translate(4.528 19.425)" fill="#fff" stroke="#fff" stroke-width="0.6"/>
      <rect id="Rectangle_683" data-name="Rectangle 683" width="13.006" height="0.963" transform="translate(6.455 19.425)" fill="#fff" stroke="#fff" stroke-width="0.6"/>
      <rect id="Rectangle_684" data-name="Rectangle 684" width="0.963" height="0.963" transform="translate(4.528 22.315)" fill="#fff" stroke="#fff" stroke-width="0.6"/>
      <rect id="Rectangle_685" data-name="Rectangle 685" width="13.006" height="0.963" transform="translate(6.455 22.315)" fill="#fff" stroke="#fff" stroke-width="0.6"/>
      <rect id="Rectangle_686" data-name="Rectangle 686" width="0.963" height="0.963" transform="translate(4.528 25.206)" fill="#fff" stroke="#fff" stroke-width="0.6"/>
      <rect id="Rectangle_687" data-name="Rectangle 687" width="13.006" height="0.963" transform="translate(6.455 25.206)" fill="#fff" stroke="#fff" stroke-width="0.6"/>
      <g id="Group_624" data-name="Group 624" transform="translate(8.352 5.961)">
        <path id="Path_145" data-name="Path 145" d="M21.259,38.362l-2.92-2.92,1.022-1.022,1.9,1.9,5.269-5.27,1.022,1.022Z" transform="translate(-18.339 -31.049)" fill="#fff" stroke="#fff" stroke-width="0.6"/>
      </g>
    </g>
  </g>
</svg>
