<svg xmlns="http://www.w3.org/2000/svg" width="49" height="49" viewBox="0 0 49 49">
  <g id="Group_1003" data-name="Group 1003" transform="translate(-6806 -2799)">
    <circle id="Ellipse_69" data-name="Ellipse 69" cx="24.5" cy="24.5" r="24.5" transform="translate(6806 2799)" fill="#6a8e92"/>
    <g id="Group_1002" data-name="Group 1002" transform="translate(130.552 96)">
      <path id="Subtraction_3" data-name="Subtraction 3" d="M19.9,25.754H.558A.548.548,0,0,1,0,25.218V8.543H1.117V24.682H19.342V7.511H14.317a.548.548,0,0,1-.558-.536V1.082L1.117,1.073V5.845H0V.536A.548.548,0,0,1,.558,0h4.78C8.29,0,11.077,0,14.62.008A.567.567,0,0,1,15.049.2l5.279,6.085a.525.525,0,0,1,.13.344V25.218A.548.548,0,0,1,19.9,25.754ZM14.876,1.678V6.439h4.13Z" transform="translate(6691.243 2714)" fill="#fff" stroke="#fff" stroke-width="0.5"/>
      <path id="Path_2016" data-name="Path 2016" d="M12.516,1022.36a.538.538,0,0,0,0,1.073H23.543a.538.538,0,0,0,0-1.073Z" transform="translate(6683.356 1703.095)" fill="#fff" stroke="#fff" stroke-width="0.5" fill-rule="evenodd"/>
      <path id="Path_2015" data-name="Path 2015" d="M12.516,1028.36a.538.538,0,0,0,0,1.073H23.543a.538.538,0,0,0,0-1.073Z" transform="translate(6683.356 1700.315)" fill="#fff" stroke="#fff" stroke-width="0.5" fill-rule="evenodd"/>
      <path id="Path_2014" data-name="Path 2014" d="M12.516,1034.36a.538.538,0,0,0,0,1.073H23.543a.538.538,0,0,0,0-1.073Z" transform="translate(6683.356 1697.534)" fill="#fff" stroke="#fff" stroke-width="0.5" fill-rule="evenodd"/>
      <path id="Path_2013" data-name="Path 2013" d="M12.516,1040.36a.538.538,0,0,0,0,1.073H23.543a.538.538,0,0,0,0-1.073Z" transform="translate(6683.356 1694.753)" fill="#fff" stroke="#fff" stroke-width="0.5" fill-rule="evenodd"/>
      <path id="Intersection_5" data-name="Intersection 5" d="M7.934,15.287V14.118H6.744a4.15,4.15,0,0,1-3.355-1.7A3.268,3.268,0,0,0,.75,11.075H0v-.868H.75A4.149,4.149,0,0,1,4.1,11.91a3.263,3.263,0,0,0,2.639,1.339h1.19V5.085a3.88,3.88,0,0,1-3.46,2.079H3.526V6.295h.948a3,3,0,0,0,2.7-1.645l.366-.722A.444.444,0,0,1,8.048,3.7l5,1.317a.84.84,0,0,0,.725-.144.818.818,0,0,0,.31-.815.829.829,0,0,0-.6-.635L7.876,1.949H6.129A3.246,3.246,0,0,0,3.647,3.1,4.13,4.13,0,0,1,.485,4.557H0V3.687H.485A3.246,3.246,0,0,0,2.966,2.54,4.127,4.127,0,0,1,6.126,1.079H7.934V0h.882V1.3l4.9,1.286a1.685,1.685,0,0,1,.6,2.98,1.742,1.742,0,0,1-1.489.3L8.816,4.8V15.287Z" transform="translate(6683.448 2718.046)" fill="#fff" stroke="#fff" stroke-width="0.5"/>
    </g>
  </g>
</svg>
