<svg xmlns="http://www.w3.org/2000/svg" width="49" height="49" viewBox="0 0 49 49">
  <g id="Group_967" data-name="Group 967" transform="translate(-2360 612)">
    <circle id="Ellipse_66" data-name="Ellipse 66" cx="24.5" cy="24.5" r="24.5" transform="translate(2360 -612)" fill="#36afff"/>
    <g id="Group_966" data-name="Group 966" transform="translate(263 126)">
      <g id="Group_965" data-name="Group 965" transform="translate(2110 -730)">
        <path id="Path_254" data-name="Path 254" d="M25.539,2.9,24.355.535A.969.969,0,0,0,23.489,0H15.745a.969.969,0,0,0-.866.535L13.694,2.9H8.968A.968.968,0,0,0,8,3.872V30.01a.968.968,0,0,0,.968.968h21.3a.968.968,0,0,0,.968-.968V3.872a.968.968,0,0,0-.968-.968Zm-9.2-.968h6.548l1.936,3.872H14.407ZM29.3,29.042H9.936V4.84h2.79l-.752,1.5a.969.969,0,0,0,.866,1.4H26.4a.968.968,0,0,0,.8-1.513l-.7-1.391H29.3Z" transform="translate(-8)" fill="#fff"/>
        <path id="Path_255" data-name="Path 255" d="M35.681,22H26.968a.968.968,0,1,0,0,1.936h8.713a.968.968,0,1,0,0-1.936Z" transform="translate(-17.287 -11.351)" fill="#fff"/>
        <path id="Path_256" data-name="Path 256" d="M35.681,32H26.968a.968.968,0,1,0,0,1.936h8.713a.968.968,0,1,0,0-1.936Z" transform="translate(-17.287 -16.511)" fill="#fff"/>
        <path id="Path_257" data-name="Path 257" d="M35.681,42H26.968a.968.968,0,1,0,0,1.936h8.713a.968.968,0,1,0,0-1.936Z" transform="translate(-17.287 -21.671)" fill="#fff"/>
        <path id="Path_258" data-name="Path 258" d="M35.681,52H26.968a.968.968,0,1,0,0,1.936h8.713a.968.968,0,1,0,0-1.936Z" transform="translate(-17.287 -26.83)" fill="#fff"/>
        <path id="Path_259" data-name="Path 259" d="M17.936,22h-.968a.968.968,0,0,0,0,1.936h.968a.968.968,0,1,0,0-1.936Z" transform="translate(-12.128 -11.351)" fill="#fff"/>
        <path id="Path_260" data-name="Path 260" d="M17.936,32h-.968a.968.968,0,1,0,0,1.936h.968a.968.968,0,1,0,0-1.936Z" transform="translate(-12.128 -16.511)" fill="#fff"/>
        <path id="Path_261" data-name="Path 261" d="M17.936,42h-.968a.968.968,0,1,0,0,1.936h.968a.968.968,0,1,0,0-1.936Z" transform="translate(-12.128 -21.671)" fill="#fff"/>
        <path id="Path_262" data-name="Path 262" d="M17.936,52h-.968a.968.968,0,0,0,0,1.936h.968a.968.968,0,1,0,0-1.936Z" transform="translate(-12.128 -26.83)" fill="#fff"/>
      </g>
    </g>
  </g>
</svg>
