<svg id="Group_142" data-name="Group 142" xmlns="http://www.w3.org/2000/svg" width="20.769" height="20.761" viewBox="0 0 20.769 20.761">
  <g id="Group_139" data-name="Group 139" transform="translate(0 0)">
    <path id="Path_18" data-name="Path 18" d="M20.225,9.317,16.179,6.394a1.038,1.038,0,0,0-1.646.842V9H11.419V6.228a4.5,4.5,0,0,0-4.5-4.5H5.762A2.894,2.894,0,0,0,3.114,0a3.114,3.114,0,0,0,0,6.228A2.894,2.894,0,0,0,5.762,4.5H6.921a1.732,1.732,0,0,1,1.73,1.73V9H5.762a2.894,2.894,0,0,0-2.647-1.73,3.114,3.114,0,1,0,0,6.228,2.894,2.894,0,0,0,2.647-1.73H8.65v2.768a1.732,1.732,0,0,1-1.73,1.73H5.761a2.894,2.894,0,0,0-2.647-1.73,3.114,3.114,0,0,0,0,6.228,2.894,2.894,0,0,0,2.647-1.73H6.921a4.5,4.5,0,0,0,4.5-4.5V12.111h3.114v1.414a1.038,1.038,0,0,0,1.646.842l4.046-2.922a1.313,1.313,0,0,0,0-2.128Z" transform="translate(0 0)" fill="#dfe8ef"/>
  </g>
</svg>
