<svg xmlns="http://www.w3.org/2000/svg" width="21.997" height="12.544" viewBox="0 0 21.997 12.544"><defs><style>.a{fill:#9baeca;}</style></defs><path class="a" d="M27,35.238a.66.66,0,0,1-.66.66H23.7a.66.66,0,1,1,0-1.319h1.958a9.627,9.627,0,0,0-2.367-5.7l-1.38,1.379a.659.659,0,0,1-.932-.932l1.379-1.38a9.634,9.634,0,0,0-5.7-2.365v1.956a.66.66,0,0,1-1.319,0V25.582a9.631,9.631,0,0,0-5.7,2.365l5.835,5.835A1.527,1.527,0,0,1,16,33.691a1.546,1.546,0,1,1-1.545,1.547,1.518,1.518,0,0,1,.091-.521L8.709,28.88a9.627,9.627,0,0,0-2.367,5.7H8.3a.66.66,0,0,1,0,1.319H5.66A.66.66,0,0,1,5,35.238a10.953,10.953,0,0,1,3.172-7.717c.038-.04.076-.079.117-.117a10.974,10.974,0,0,1,15.417,0,0,0,0,0,1,0,0c.044.041.089.086.13.13a0,0,0,0,1,0,0A10.958,10.958,0,0,1,27,35.238Z" transform="translate(-5 -24.239)"/></svg>