<svg xmlns="http://www.w3.org/2000/svg" width="33.95" height="31.218" viewBox="0 0 33.95 31.218">
  <g id="Draw" transform="translate(-3.7 -7.471)">
    <path id="Path_2026" data-name="Path 2026" d="M47.791,22.716a3.866,3.866,0,0,0-2.752,1.14.72.72,0,0,0-.193.354.719.719,0,0,0-.353.193L28.712,40.183a.728.728,0,0,0-.168.262l-1.882,5.111a1.728,1.728,0,0,0,.231,1.951,1.448,1.448,0,0,0,1.057.409,2.6,2.6,0,0,0,.894-.177l5.1-1.878a.721.721,0,0,0,.277-.173h0L50,29.908a.721.721,0,0,0,.193-.353.721.721,0,0,0,.353-.192,3.893,3.893,0,0,0-2.753-6.646ZM33.7,44.15l-1.929-1.93a.725.725,0,0,0-1.025,1.026l1.641,1.641-4.047,1.491a1.132,1.132,0,0,1-.406.086,1.093,1.093,0,0,1,.086-.406h0L29.849,41.1,45.115,25.89l3.454,3.454Z" transform="translate(-14.334 -9.527)" fill="#295c8d" stroke="#295c8d" stroke-width="0.6"/>
    <path id="Path_2027" data-name="Path 2027" d="M10.222,35.477c-2.526-1.352-3.886-3.357-3.731-5.5.18-2.5,2.407-4.819,5.812-6.052,3.766-1.363,5.954-4.831,5.323-8.432a8.279,8.279,0,0,0-3.756-5.408A16.606,16.606,0,0,0,4.725,7.771a.725.725,0,0,0,0,1.45c4.764,0,10.627,1.708,11.472,6.523.516,2.941-1.247,5.681-4.388,6.818-4.01,1.452-6.539,4.185-6.765,7.31-.2,2.739,1.44,5.248,4.493,6.882a.725.725,0,0,0,.684-1.278Z" fill="#295c8d" stroke="#295c8d" stroke-width="0.6"/>
  </g>
</svg>
