<svg xmlns="http://www.w3.org/2000/svg" width="18.235" height="21.342" viewBox="0 0 18.235 21.342">
  <g id="Element" transform="translate(-248.843 -116.005)">
    <path id="Path_252" data-name="Path 252" d="M266.486,125.161a1.8,1.8,0,0,0-1.348-.5c-1.59.07-3.331,1.973-4.5,3.268-.019-3.769-.016-8.666-.016-8.721a1.87,1.87,0,0,0-2.705-1.673,1.87,1.87,0,0,0-3.68,0,1.869,1.869,0,0,0-2.675,1.337,1.87,1.87,0,0,0-2.705,1.673v5.732a42.291,42.291,0,0,0,.291,5.909c.3,2.151.818,3.48,1.594,4.062a6.394,6.394,0,0,0,3.838,1.089c.3,0,.584-.014.848-.034a9.139,9.139,0,0,0,3.741-1.03,11.463,11.463,0,0,0,3.48-4.254c.325-.563.631-1.1.944-1.546a8.457,8.457,0,0,1,1.446-1.381c1.036-.858,2.015-1.668,2.044-2.662A1.65,1.65,0,0,0,266.486,125.161Zm-.469,1.243c-.014.51-.926,1.264-1.658,1.87a9.079,9.079,0,0,0-1.642,1.594c-.338.487-.656,1.039-.993,1.623a10.689,10.689,0,0,1-3.128,3.883,8.32,8.32,0,0,1-3.258.869,6.106,6.106,0,0,1-3.96-.844c-.694-.52-1.035-2.324-1.177-3.354a41.448,41.448,0,0,1-.281-5.81.509.509,0,0,0,0-.063v-5.624a.8.8,0,0,1,1.608,0v5.663a.534.534,0,0,0,1.067,0v-7a.8.8,0,0,1,1.608,0v6.555a.534.534,0,1,0,1.067,0v-7.89a.8.8,0,1,1,1.608,0v7.444a.534.534,0,1,0,1.067,0v-6.109a.8.8,0,1,1,1.608,0c0,.063,0,6.068.023,9.9a.572.572,0,0,0,.366.546c.379.145.676-.153.853-.33.155-.155.352-.375.581-.626a22.065,22.065,0,0,1,1.908-1.934,3.486,3.486,0,0,1,1.9-1.041.751.751,0,0,1,.575.212c.263.242.259.405.259.459Z" fill="#538ebd"/>
  </g>
</svg>
