<svg xmlns="http://www.w3.org/2000/svg" width="74.929" height="79.838" viewBox="0 0 74.929 79.838">
  <g id="Group_985" data-name="Group 985" transform="translate(8858.847 -5557.331)">
    <path id="Path_1983" data-name="Path 1983" d="M56.883,186.128c.521.009,1.128-.223,1.573.154Q76.317,199,94.184,211.707c.565.518.342,1.393.347,2.075q-.013,25.1,0,50.2a.9.9,0,0,1-.939.928q-35.6.007-71.2,0c-.471-.022-1.036.1-1.4-.276s-.25-.928-.271-1.395q.005-24.369,0-48.737a14.755,14.755,0,0,0-.073-2.192.876.876,0,0,1,.425-.826q17.71-12.581,35.419-25.164a1.2,1.2,0,0,1,.4-.2M23.354,212.116a20.813,20.813,0,0,1,1.612,1.411q3.94,3.376,7.892,6.742,0-6.177,0-12.353c0-.415-.05-.9.288-1.214.364-.421.96-.3,1.451-.313q23.393.006,46.784,0a.89.89,0,0,1,.777.372c.237.322.625.6.6,1.04.015,4.161,0,8.321.007,12.482,3-2.3,6-4.6,8.994-6.91.071-.337.44-.462.674-.667q-17.456-12.435-34.92-24.856-17.095,12.11-34.162,24.262m11.334-3.895c-.006,4.533.011,9.068-.009,13.6q8.511,7.271,17.024,14.539c1.345-1.17,2.694-2.335,4.035-3.51.324-.292.728-.683,1.2-.492.405.169.9.15,1.229.47q1.984,1.647,3.974,3.285,9.456-7.269,18.922-14.525a2.085,2.085,0,0,1-.133-.721q.009-6.324,0-12.647-23.125,0-46.249,0m-12.151,5.613q.035,23.922.01,47.845,13.884-12.05,27.764-24.107l-22.962-19.6c-1.6-1.384-3.237-2.723-4.812-4.135M63.59,237.307q14.552,12.046,29.118,24.073-.005-23.208,0-46.415Q78.151,226.139,63.59,237.307M23.728,263.081H91.895q-17.463-14.433-34.926-28.865Q40.345,248.645,23.728,263.081Z" transform="translate(-8878.978 5371.753)" fill="#e79e52" stroke="#e79e52" stroke-width="1"/>
    <path id="Path_1984" data-name="Path 1984" d="M203.994,414.593a2.867,2.867,0,0,1,1.172-.114q14.657.005,29.314,0a.917.917,0,1,1,0,1.828q-14.715,0-29.432,0c-.424-.011-.935.076-1.257-.274A.923.923,0,0,1,203.994,414.593Z" transform="translate(-9039.534 5171.238)" fill="#e79e52" stroke="#e79e52" stroke-width="1"/>
    <path id="Path_1985" data-name="Path 1985" d="M176.457,462.371c1.688-.065,3.383-.007,5.074-.027q9.352,0,18.7,0a.915.915,0,0,1,.9,1.117.946.946,0,0,1-1.026.71q-11.665-.007-23.332,0a.933.933,0,0,1-.962-.655A.916.916,0,0,1,176.457,462.371Z" transform="translate(-9015.167 5129.219)" fill="#e79e52" stroke="#e79e52" stroke-width="1"/>
    <path id="Path_1986" data-name="Path 1986" d="M404.184,464.447c.878-.045,1.761-.017,2.64-.015a.911.911,0,0,1,.845,1.159.9.9,0,0,1-.856.658c-.811.012-1.624.01-2.435,0a.911.911,0,0,1-.194-1.8Z" transform="translate(-9215.047 5127.392)" fill="#e79e52" stroke="#e79e52" stroke-width="1"/>
    <path id="Path_1987" data-name="Path 1987" d="M219.414,514.853a2.8,2.8,0,0,1,.942-.081c7.366.01,14.733,0,22.1.006a.913.913,0,0,1,.9,1.114.939.939,0,0,1-1.01.713q-11.248-.005-22.494,0a.916.916,0,0,1-.432-1.75Z" transform="translate(-9053.004 5083.189)" fill="#e79e52" stroke="#e79e52" stroke-width="1"/>
  </g>
</svg>
