<svg xmlns="http://www.w3.org/2000/svg" width="28.316" height="24.942" viewBox="0 0 28.316 24.942">
  <path id="Erase" d="M88.344,218.771H76.259q5.886-5.9,11.788-11.794a3.152,3.152,0,0,0-.011-4.65q-2.7-2.716-5.424-5.411a3.172,3.172,0,0,0-4.7.017q-7.843,7.853-15.678,15.716a3.146,3.146,0,0,0-.039,4.546c.931.959,1.864,1.918,2.843,2.826a1.8,1.8,0,0,0,1.063.438c.322.013.644.021.966.025.016,0,.031,0,.047,0H88.344a.648.648,0,0,0,.648-.648v-.421A.648.648,0,0,0,88.344,218.771ZM75.711,201.622c1.186-1.178,2.36-2.367,3.548-3.543.778-.77,1.239-.776,2.005-.019q2.828,2.794,5.639,5.6c.7.7.724,1.242.053,1.916q-4.621,4.648-9.266,9.273a.542.542,0,0,1-.132.085l-7.6-7.614C71.849,205.451,73.782,203.539,75.711,201.622Zm-9.767,16.869q-1.375-1.3-2.682-2.68a1.081,1.081,0,0,1-.016-1.707c1.787-1.82,3.6-3.613,5.388-5.4l7.585,7.6c-.751.761-1.52,1.564-2.322,2.332a.966.966,0,0,1-.6.127c-2.194.008-4.389.014-6.583-.007A1.214,1.214,0,0,1,65.944,218.491Z" transform="translate(-60.99 -195.646)" fill="#295c8d" stroke="#295c8d" stroke-width="0.2"/>
</svg>
