<svg xmlns="http://www.w3.org/2000/svg" width="24.35" height="24.35" viewBox="0 0 24.35 24.35">
  <path id="Icon_map-fullscreen" data-name="Icon map-fullscreen" d="M1.44,8.723V1.44H9.009l2.785,2.117H7.153l4.874,5.165L9.009,11.5,4.087,6.866v4.642ZM18.248,1.44H25.79V8.75l-2.117,2.785V6.893l-5.3,4.874L15.538,8.879,20.1,4.087H15.462ZM25.79,18.248V25.79H18.221l-2.785-2.117h4.642l-4.874-5.3,3.018-2.839L23.143,20.1V15.462ZM8.982,25.79H1.44V18.221l2.117-2.785v4.642l5.3-4.874,2.839,3.018L7.126,23.143h4.642Z" transform="translate(-1.44 -1.44)" fill="#538ebd"/>
</svg>
