<svg xmlns="http://www.w3.org/2000/svg" width="29.141" height="34.109" viewBox="0 0 29.141 34.109">
  <g id="Element" transform="translate(-248.861 -116.005)">
    <path id="Path_252" data-name="Path 252" d="M277.047,130.642a2.876,2.876,0,0,0-2.155-.793c-2.541.112-5.325,3.154-7.2,5.225-.031-6.026-.025-13.853-.025-13.941a2.989,2.989,0,0,0-4.325-2.675,2.99,2.99,0,0,0-5.883,0,2.988,2.988,0,0,0-4.276,2.138,2.989,2.989,0,0,0-4.325,2.675v9.08c0,.028,0,.056,0,.083a67.6,67.6,0,0,0,.465,9.446c.474,3.439,1.307,5.563,2.548,6.493a10.222,10.222,0,0,0,6.135,1.741c.477,0,.933-.022,1.355-.055a14.61,14.61,0,0,0,5.981-1.646c2.587-1.63,4.169-4.377,5.564-6.8.519-.9,1.009-1.753,1.509-2.472a13.521,13.521,0,0,1,2.312-2.208c1.657-1.371,3.222-2.667,3.267-4.255A2.637,2.637,0,0,0,277.047,130.642Zm-.75,1.987c-.023.816-1.48,2.021-2.65,2.99a14.517,14.517,0,0,0-2.625,2.548c-.541.779-1.049,1.661-1.587,2.594-1.3,2.252-2.766,4.8-5,6.208a13.3,13.3,0,0,1-5.209,1.389c-1.528.123-4.383.111-6.33-1.35-1.109-.832-1.655-3.716-1.882-5.361a66.264,66.264,0,0,1-.449-9.288.826.826,0,0,0,0-.1v-8.991a1.285,1.285,0,1,1,2.571,0v9.053a.853.853,0,0,0,1.705,0V121.134a1.285,1.285,0,1,1,2.571,0v10.479a.853.853,0,1,0,1.705,0V119a1.285,1.285,0,1,1,2.571,0v11.9a.853.853,0,1,0,1.705,0v-9.766a1.285,1.285,0,0,1,2.571,0c0,.1-.007,9.7.037,15.832a.914.914,0,0,0,.585.873c.606.231,1.08-.244,1.364-.527.247-.248.563-.6.929-1a35.273,35.273,0,0,1,3.05-3.092c1.554-1.334,2.51-1.641,3.038-1.664a1.2,1.2,0,0,1,.919.339C276.306,132.282,276.3,132.543,276.3,132.629Z" transform="translate(0 0)" fill="#538ebd"/>
  </g>
</svg>
