<svg xmlns="http://www.w3.org/2000/svg" width="14.032" height="14.042" viewBox="0 0 14.032 14.042"><defs><style>.a{fill:#9baeca;stroke:#9baeca;stroke-width:0.5px;}</style></defs><g transform="translate(0.25 0.25)"><path class="a" d="M12.617,2.99a6.739,6.739,0,0,0-9.562,0h0A6.764,6.764,0,0,0,7.836,14.542a6.676,6.676,0,0,0,4.781-1.99A6.739,6.739,0,0,0,12.617,2.99Zm-.193,9-1.561-1.561a3.953,3.953,0,0,0,.995-2.653,4.076,4.076,0,0,0-.995-2.653l1.561-1.561A6.243,6.243,0,0,1,12.423,11.986ZM5.362,10.245a3.5,3.5,0,0,1,0-4.947h0a3.5,3.5,0,0,1,4.947,0h0a3.5,3.5,0,0,1-2.474,5.97A3.6,3.6,0,0,1,5.362,10.245ZM12.05,3.183,10.489,4.745A3.953,3.953,0,0,0,7.836,3.75a4.076,4.076,0,0,0-2.653.995L3.621,3.183a6.223,6.223,0,0,1,8.429,0Zm-8.8.373L4.809,5.118a3.953,3.953,0,0,0-.995,2.653,4.076,4.076,0,0,0,.995,2.653L3.248,11.986A6.243,6.243,0,0,1,3.248,3.556Zm.373,8.8L5.183,10.8a3.953,3.953,0,0,0,2.653.995,4.076,4.076,0,0,0,2.653-.995l1.561,1.561a6.223,6.223,0,0,1-8.429,0Z" transform="translate(-1.075 -1)"/></g></svg>