<svg xmlns="http://www.w3.org/2000/svg" width="19.854" height="19.868" viewBox="0 0 19.854 19.868">
  <path id="Path_268" data-name="Path 268" d="M17.327,3.8a9.489,9.489,0,0,0-13.465,0h0a9.524,9.524,0,0,0,6.732,16.267,9.4,9.4,0,0,0,6.732-2.8A9.489,9.489,0,0,0,17.327,3.8Zm-.272,12.667-2.2-2.2a5.566,5.566,0,0,0,1.4-3.736,5.74,5.74,0,0,0-1.4-3.736l2.2-2.2A8.79,8.79,0,0,1,17.055,16.469ZM7.112,14.017a4.932,4.932,0,0,1,0-6.966h0a4.932,4.932,0,0,1,6.966,0h0a4.923,4.923,0,0,1-3.483,8.406A5.071,5.071,0,0,1,7.112,14.017Zm9.417-9.943-2.2,2.2a5.566,5.566,0,0,0-3.736-1.4,5.74,5.74,0,0,0-3.736,1.4l-2.2-2.2a8.763,8.763,0,0,1,11.869,0ZM4.135,4.6l2.2,2.2a5.566,5.566,0,0,0-1.4,3.736,5.74,5.74,0,0,0,1.4,3.736l-2.2,2.2A8.79,8.79,0,0,1,4.135,4.6ZM4.66,16.994l2.2-2.2a5.566,5.566,0,0,0,3.736,1.4,5.74,5.74,0,0,0,3.736-1.4l2.2,2.2a8.763,8.763,0,0,1-11.869,0Z" transform="translate(-0.675 -0.6)" fill="#fff" stroke="#fff" stroke-width="0.8"/>
</svg>
