<svg xmlns="http://www.w3.org/2000/svg" width="31.822" height="30.529" viewBox="0 0 31.822 30.529">
  <g id="Language_Icon" transform="translate(-983.794 -51.743)">
    <g id="Group_1025" data-name="Group 1025" transform="translate(607.695 624.473)">
      <path id="Path_2033" data-name="Path 2033" d="M385.118-550.182c-1.687,0-3.237.008-4.786,0a3.679,3.679,0,0,1-2.943-1.051,3.679,3.679,0,0,1-1.073-2.934c-.014-4.2-.015-10.2,0-14.4a3.656,3.656,0,0,1,1.066-2.893,3.656,3.656,0,0,1,2.9-1.049q9.241-.016,18.482,0a3.618,3.618,0,0,1,2.9,1.03,3.618,3.618,0,0,1,1.058,2.892c.013,4.225.014,10.262,0,14.486a3.624,3.624,0,0,1-1.065,2.889,3.624,3.624,0,0,1-2.9,1.027c-1.936.011-3.874-.038-5.808.028a3.269,3.269,0,0,0-1.668.545c-1.588,1.1-3.1,2.317-4.674,3.443a1.368,1.368,0,0,1-1.084.24c-.225-.087-.371-.621-.387-.964C385.087-547.943,385.118-549,385.118-550.182Zm1.5,2.2c1.52-1.136,2.832-2.165,4.2-3.112a2.941,2.941,0,0,1,1.506-.515c2.14-.056,4.282-.018,6.423-.025a2.258,2.258,0,0,0,1.9-.649,2.258,2.258,0,0,0,.632-1.906c0-4.165,0-10.143,0-14.308a2.253,2.253,0,0,0-.627-1.906,2.253,2.253,0,0,0-1.9-.65q-9.2-.006-18.392,0a2.232,2.232,0,0,0-1.91.624,2.232,2.232,0,0,0-.634,1.907c-.01,4.2-.009,10.2,0,14.4a2.214,2.214,0,0,0,.628,1.864,2.214,2.214,0,0,0,1.863.629c1.73.008,3.462.023,5.192-.008.788-.014,1.14.3,1.123,1.088s-.008,1.565-.008,2.566Z" fill="#8fabd0" stroke="#8fabd0" stroke-width="0.4"/>
      <path id="Path_2034" data-name="Path 2034" d="M474.952-525.237c0,1.187.031,2.242-.018,3.293-.016.342-.165.875-.391.962a1.369,1.369,0,0,1-1.084-.243c-1.784-1.286-3.532-2.621-5.293-3.939-.425-.318-.82-.683-.387-1.23s.876-.241,1.3.076c1.4,1.053,2.8,2.1,4.379,3.283,0-.961.02-1.734-.006-2.506-.027-.81.3-1.176,1.143-1.158,1.7.036,3.4.015,5.1.01,1.722-.005,2.557-.814,2.561-2.514.009-4.2.008-10.2,0-14.4,0-1.545-.6-2.2-2.114-2.54a1.145,1.145,0,0,1-.735-.753c-.068-.565.416-.672.907-.661a3.608,3.608,0,0,1,3.311,2.8,6.414,6.414,0,0,1,.125,1.309c.009,4.078.01,9.968,0,14.046,0,2.732-1.445,4.154-4.2,4.16C478.069-525.234,476.579-525.237,474.952-525.237Z" transform="translate(-76.036 -21.448)" fill="#8fabd0" stroke="#8fabd0" stroke-width="0.4"/>
    </g>
    <path id="Path_2035" data-name="Path 2035" d="M1783.79-455.648v-1a.974.974,0,0,0,.026-.121,7.142,7.142,0,0,1,.471-2.139,7.907,7.907,0,0,1,6.142-5.117c.3-.06.617-.084.925-.124h.875a.319.319,0,0,0,.059.019c.345.045.694.071,1.036.136a8,8,0,0,1,5.409,3.879,8,8,0,0,1,.6,6.629,8,8,0,0,1-9.355,5.126,8.012,8.012,0,0,1-6.067-6.409C1783.86-455.061,1783.83-455.355,1783.79-455.648Zm7.49-.88v-3.1l-2.673-.155a11.321,11.321,0,0,0-.56,3.26Zm1.016,0h3.238a11.308,11.308,0,0,0-.563-3.256l-2.675.156Zm-4.238,1.017a11.1,11.1,0,0,0,.549,3.008l2.674-.156v-2.851Zm7.461,0H1792.3v2.848l2.671.156a11.127,11.127,0,0,0,.549-3Zm-8.478-1.019a12.965,12.965,0,0,1,.539-3.393c-.469-.089-.918-.169-1.365-.262a.165.165,0,0,0-.2.085,6.738,6.738,0,0,0-1.039,2.369c-.086.392-.134.793-.2,1.2Zm11.743,0c-.03-.256-.05-.5-.09-.748a6.835,6.835,0,0,0-1.156-2.849.181.181,0,0,0-.148-.056c-.323.055-.643.121-.965.181-.14.026-.282.046-.433.07a12.948,12.948,0,0,1,.544,3.4Zm-13.98,1.016c.048.288.085.565.142.838a6.915,6.915,0,0,0,1.073,2.49.153.153,0,0,0,.191.075c.248-.058.5-.1.749-.15.2-.037.407-.068.624-.1a12.778,12.778,0,0,1-.533-3.15Zm11.745,0c-.064.533-.109,1.062-.2,1.584s-.218,1.043-.33,1.565c.444.084.893.164,1.341.257a.164.164,0,0,0,.2-.085,6.954,6.954,0,0,0,1.063-2.462c.06-.281.1-.567.144-.858Zm-7.538,3.977a3.845,3.845,0,0,0,2.264,2.31v-2.429Zm3.285,2.309a3.876,3.876,0,0,0,2.268-2.31l-2.268-.119Zm-1.013-13.839a3.872,3.872,0,0,0-2.263,2.313l2.263.117Zm3.288,2.312c-.44-1.113-1.6-2.274-2.271-2.3v2.419Zm2.184-.317a6.958,6.958,0,0,0-1.983-1.4l.9,1.582Zm-7.953-1.4a7.067,7.067,0,0,0-1.983,1.4l1.079.177Zm0,12.658c0-.031.006-.043,0-.048a8.205,8.205,0,0,1-.838-1.455.171.171,0,0,0-.145-.061c-.282.04-.564.09-.845.138-.042.007-.083.019-.148.034a7,7,0,0,0,1.974,1.386Zm7.937-1.389a1.061,1.061,0,0,0-.107-.032c-.287-.049-.575-.091-.86-.147-.11-.022-.149.02-.2.11-.251.454-.513.9-.77,1.352-.016.027-.029.056-.062.12a7.056,7.056,0,0,0,2-1.409Z" transform="translate(-794.789 519.058)" fill="#8fabd0" stroke="#8fabd0" stroke-width="0.3"/>
  </g>
</svg>
