<svg xmlns="http://www.w3.org/2000/svg" width="43.532" height="54.913" viewBox="0 0 43.532 54.913">
  <g id="Group_639" data-name="Group 639" transform="translate(8453.25 -19684.75)">
    <g id="Group_638" data-name="Group 638">
      <g id="Group_636" data-name="Group 636" transform="translate(730 33716)">
        <path id="Path_144" data-name="Path 144" d="M44.031,18.674H1V73.087H44.032ZM2.737,71.351V20.411H42.214V71.35H2.737Zm41.294,0v0Z" transform="translate(-9184 -14049.674)" fill="#212121" stroke="#212121" stroke-width="0.5"/>
        <rect id="Rectangle_680" data-name="Rectangle 680" width="1.737" height="1.737" transform="translate(-9174.836 -14001.188)" fill="#212121" stroke="#212121" stroke-width="0.5"/>
        <rect id="Rectangle_681" data-name="Rectangle 681" width="23.45" height="1.737" transform="translate(-9171.361 -14001.188)" fill="#212121" stroke="#212121" stroke-width="0.5"/>
        <rect id="Rectangle_682" data-name="Rectangle 682" width="1.737" height="1.737" transform="translate(-9174.836 -13995.977)" fill="#212121" stroke="#212121" stroke-width="0.5"/>
        <rect id="Rectangle_683" data-name="Rectangle 683" width="23.45" height="1.737" transform="translate(-9171.361 -13995.977)" fill="#212121" stroke="#212121" stroke-width="0.5"/>
        <rect id="Rectangle_684" data-name="Rectangle 684" width="1.737" height="1.737" transform="translate(-9174.836 -13990.766)" fill="#212121" stroke="#212121" stroke-width="0.5"/>
        <rect id="Rectangle_685" data-name="Rectangle 685" width="23.45" height="1.737" transform="translate(-9171.361 -13990.766)" fill="#212121" stroke="#212121" stroke-width="0.5"/>
        <rect id="Rectangle_686" data-name="Rectangle 686" width="1.737" height="1.737" transform="translate(-9174.836 -13985.555)" fill="#212121" stroke="#212121" stroke-width="0.5"/>
        <rect id="Rectangle_687" data-name="Rectangle 687" width="23.45" height="1.737" transform="translate(-9171.361 -13985.555)" fill="#212121" stroke="#212121" stroke-width="0.5"/>
        <g id="Group_624" data-name="Group 624" transform="translate(-9167.941 -14020.252)">
          <path id="Path_145" data-name="Path 145" d="M23.6,44.235l-5.264-5.264,1.842-1.842L23.6,40.55l9.5-9.5,1.842,1.842Z" transform="translate(-18.339 -31.049)" fill="#212121" stroke="#212121" stroke-width="0.5"/>
        </g>
      </g>
    </g>
  </g>
</svg>
