<svg id="Group_720" data-name="Group 720" xmlns="http://www.w3.org/2000/svg" width="67.777" height="72.352" viewBox="0 0 67.777 72.352">
  <g id="live-streaming">
    <path id="Path_170" data-name="Path 170" d="M445.205,187.472a4.59,4.59,0,1,1,0-6.485A4.6,4.6,0,0,1,445.205,187.472Zm0,0" transform="translate(-408.062 -167.609)" fill="#295c8d"/>
    <path id="Path_171" data-name="Path 171" d="M617.708,116.356a2.184,2.184,0,0,1-1.543-3.729,9.124,9.124,0,0,0,0-12.922,2.184,2.184,0,0,1,3.085-3.091,13.492,13.492,0,0,1,0,19.1,2.176,2.176,0,0,1-1.542.638Zm0,0" transform="translate(-574.288 -89.546)" fill="#295c8d"/>
    <path id="Path_172" data-name="Path 172" d="M691.437,33.246a2.184,2.184,0,0,1-1.543-3.729,18.2,18.2,0,0,0,0-25.781A2.184,2.184,0,1,1,692.979.645a22.572,22.572,0,0,1,0,31.964,2.177,2.177,0,0,1-1.542.638Zm0,0" transform="translate(-643.078 -0.006)" fill="#295c8d"/>
    <path id="Path_173" data-name="Path 173" d="M286.9,116.353a2.178,2.178,0,0,1-1.543-.638,13.492,13.492,0,0,1,0-19.1,2.184,2.184,0,1,1,3.085,3.091,9.125,9.125,0,0,0,0,12.922,2.184,2.184,0,0,1-1.542,3.729Zm0,0" transform="translate(-262.544 -89.543)" fill="#295c8d"/>
    <path id="Path_174" data-name="Path 174" d="M176.01,33.241a2.176,2.176,0,0,1-1.543-.638,22.572,22.572,0,0,1,0-31.964,2.184,2.184,0,0,1,3.085,3.091,18.2,18.2,0,0,0,0,25.781,2.184,2.184,0,0,1-1.542,3.729Zm0,0" transform="translate(-156.592 -0.002)" fill="#295c8d"/>
    <path id="Path_175" data-name="Path 175" d="M62.668,552.525H5.107A5.108,5.108,0,0,0,0,557.633v25.121a5.108,5.108,0,0,0,5.108,5.108h57.56a5.108,5.108,0,0,0,5.108-5.108V557.633a5.108,5.108,0,0,0-5.108-5.108ZM16.8,581.308H8.752a2.183,2.183,0,0,1-2.183-2.184V561.263a2.183,2.183,0,1,1,4.367,0v15.678H16.8a2.184,2.184,0,0,1,0,4.367Zm8.949-2.184a2.184,2.184,0,1,1-4.367,0V561.263a2.184,2.184,0,1,1,4.367,0Zm18.373-17.23-5.393,17.861,0,.005a2.214,2.214,0,0,1-4.178,0l0-.005-5.392-17.861a2.184,2.184,0,1,1,4.181-1.262l3.3,10.937,3.3-10.937a2.184,2.184,0,1,1,4.181,1.262Zm13.434,4.991a2.184,2.184,0,1,1,0,4.367h-6.2v5.688h7.373a2.184,2.184,0,0,1,0,4.367H49.173a2.184,2.184,0,0,1-2.184-2.184V561.263a2.184,2.184,0,0,1,2.184-2.184h9.851a2.184,2.184,0,0,1,0,4.368H51.356v3.439Zm0,0" transform="translate(0.001 -515.51)" fill="#295c8d"/>
  </g>
</svg>
