<svg xmlns="http://www.w3.org/2000/svg" width="61.5" height="82" viewBox="0 0 61.5 82">
  <g id="Group_986" data-name="Group 986" transform="translate(-2110 730)">
    <g id="Group_965" data-name="Group 965" transform="translate(2110 -730)">
      <path id="Path_254" data-name="Path 254" d="M54.427,7.688,51.292,1.416A2.565,2.565,0,0,0,49,0H28.5a2.565,2.565,0,0,0-2.292,1.416L23.073,7.688H10.563A2.563,2.563,0,0,0,8,10.25V79.438A2.563,2.563,0,0,0,10.563,82H66.938A2.563,2.563,0,0,0,69.5,79.438V10.25a2.563,2.563,0,0,0-2.562-2.563ZM30.084,5.125H47.416l5.125,10.25H24.959Zm34.291,71.75H13.125V12.813H20.51l-1.99,3.978A2.564,2.564,0,0,0,20.813,20.5h35.9a2.563,2.563,0,0,0,2.118-4.005L56.99,12.813h7.385Z" transform="translate(-8)" fill="#36afff"/>
      <path id="Path_255" data-name="Path 255" d="M51.625,22H28.563a2.563,2.563,0,1,0,0,5.125H51.625a2.563,2.563,0,1,0,0-5.125Z" transform="translate(-2.937 6.188)" fill="#36afff"/>
      <path id="Path_256" data-name="Path 256" d="M51.625,32H28.563a2.563,2.563,0,1,0,0,5.125H51.625a2.563,2.563,0,1,0,0-5.125Z" transform="translate(-2.937 9)" fill="#36afff"/>
      <path id="Path_257" data-name="Path 257" d="M51.625,42H28.563a2.563,2.563,0,1,0,0,5.125H51.625a2.563,2.563,0,1,0,0-5.125Z" transform="translate(-2.937 11.813)" fill="#36afff"/>
      <path id="Path_258" data-name="Path 258" d="M51.625,52H28.563a2.563,2.563,0,1,0,0,5.125H51.625a2.563,2.563,0,1,0,0-5.125Z" transform="translate(-2.937 14.625)" fill="#36afff"/>
      <path id="Path_259" data-name="Path 259" d="M21.125,22H18.563a2.563,2.563,0,1,0,0,5.125h2.563a2.563,2.563,0,0,0,0-5.125Z" transform="translate(-5.75 6.188)" fill="#36afff"/>
      <path id="Path_260" data-name="Path 260" d="M21.125,32H18.563a2.563,2.563,0,1,0,0,5.125h2.563a2.563,2.563,0,0,0,0-5.125Z" transform="translate(-5.75 9)" fill="#36afff"/>
      <path id="Path_261" data-name="Path 261" d="M21.125,42H18.563a2.563,2.563,0,1,0,0,5.125h2.563a2.563,2.563,0,1,0,0-5.125Z" transform="translate(-5.75 11.813)" fill="#36afff"/>
      <path id="Path_262" data-name="Path 262" d="M21.125,52H18.563a2.563,2.563,0,1,0,0,5.125h2.563a2.563,2.563,0,0,0,0-5.125Z" transform="translate(-5.75 14.625)" fill="#36afff"/>
    </g>
  </g>
</svg>
