<svg xmlns="http://www.w3.org/2000/svg" width="14.288" height="19.027" viewBox="0 0 14.288 19.027">
  <g id="Logout" transform="translate(-1052.15 -35.542)">
    <path id="Path_14657" data-name="Path 14657" d="M19.769,29.827H29.858a1.69,1.69,0,0,0,1.689-1.69V26.206a.724.724,0,1,0-1.448,0v1.931a.241.241,0,0,1-.241.241H19.769a.241.241,0,0,1-.241-.241V12.69a.241.241,0,0,1,.241-.241H29.858a.241.241,0,0,1,.241.241V14.62a.724.724,0,1,0,1.448,0V12.69A1.69,1.69,0,0,0,29.858,11H19.769a1.69,1.69,0,0,0-1.689,1.69V28.137A1.69,1.69,0,0,0,19.769,29.827Z" transform="translate(1034.17 24.642)" fill="#fff" stroke="#fff" stroke-width="0.2"/>
    <path id="Path_14658" data-name="Path 14658" d="M42.151,31.213a.612.612,0,0,0-.858.864l2.267,2.242H36.992a.612.612,0,0,0,0,1.223h6.568l-2.267,2.242a.612.612,0,0,0,.858.87l3.325-3.288a.612.612,0,0,0,0-.87Z" transform="translate(1020.631 10.126)" fill="#fff" stroke="#fff" stroke-width="0.3"/>
  </g>
</svg>
