<svg xmlns="http://www.w3.org/2000/svg" width="17.322" height="17.294" viewBox="0 0 17.322 17.294">
  <g id="Group_30" data-name="Group 30" transform="translate(0.007)">
    <path id="Path_5" data-name="Path 5" d="M228.749,84.878a.778.778,0,0,1-.7-.835V82.294a.583.583,0,0,0-.543-.624h-5.564a.571.571,0,0,0-.527.624V95a.571.571,0,0,0,.527.624H227.5a.583.583,0,0,0,.543-.624V93.284a.715.715,0,1,1,1.41,0V95a2.144,2.144,0,0,1-1.953,2.294h-5.564A2.132,2.132,0,0,1,220,95V82.3a2.132,2.132,0,0,1,1.936-2.3H227.5a2.144,2.144,0,0,1,1.953,2.294v1.749a.778.778,0,0,1-.7.835Z" transform="translate(-220 -80)" fill="#8fabd0"/>
    <path id="Path_6" data-name="Path 6" d="M75.662,169.344,72.992,173a.578.578,0,0,1-1,0,1.236,1.236,0,0,1,0-1.364l1.522-2.086H64.4c-.39,0-.7-.432-.7-.966s.315-.966.7-.966h9.267l-1.708-2.7a1.228,1.228,0,0,1,.07-1.364.582.582,0,0,1,1,.1l2.67,4.218a1.157,1.157,0,0,1,.232.716,1.107,1.107,0,0,1-.269.756Z" transform="translate(-58.617 -159.864)" fill="#8fabd0"/>
  </g>
</svg>
