<svg id="noun_logout_2028508" xmlns="http://www.w3.org/2000/svg" width="24.826" height="24.795" viewBox="0 0 24.826 24.795">
  <g id="Group_30" data-name="Group 30" transform="translate(0 0)">
    <path id="Path_5" data-name="Path 5" d="M232.544,86.995a1.115,1.115,0,0,1-1.011-1.2V83.29a.836.836,0,0,0-.779-.895h-7.978a.818.818,0,0,0-.755.895v18.216a.818.818,0,0,0,.755.895h7.978a.836.836,0,0,0,.779-.895V99.047a1.025,1.025,0,1,1,2.021,0v2.458a3.074,3.074,0,0,1-2.8,3.29h-7.978a3.057,3.057,0,0,1-2.776-3.29V83.29A3.057,3.057,0,0,1,222.776,80h7.978a3.074,3.074,0,0,1,2.8,3.29V85.8A1.115,1.115,0,0,1,232.544,86.995Z" transform="translate(-220 -80)" fill="#538ebd"/>
    <path id="Path_6" data-name="Path 6" d="M80.851,171.957l-3.829,5.249a.828.828,0,0,1-1.427,0,1.773,1.773,0,0,1,0-1.956l2.182-2.991H64.711c-.559,0-1.011-.62-1.011-1.386s.452-1.386,1.011-1.386H78l-2.449-3.872a1.761,1.761,0,0,1,.1-1.956.835.835,0,0,1,1.427.139l3.828,6.048a1.658,1.658,0,0,1,.333,1.027A1.587,1.587,0,0,1,80.851,171.957Z" transform="translate(-56.412 -158.365)" fill="#538ebd"/>
  </g>
</svg>
