<svg xmlns="http://www.w3.org/2000/svg" width="28.07" height="19.597" viewBox="0 0 28.07 19.597">
  <g id="Group_844" data-name="Group 844" transform="translate(2742.92 235.25)">
    <path id="Path_225" data-name="Path 225" d="M58.934,117H79.3a3.6,3.6,0,0,1,3.6,3.6V136.1H55.33V120.6a3.6,3.6,0,0,1,3.6-3.6Zm0,1.511H79.3a2.092,2.092,0,0,1,2.092,2.092v13.982H56.841V120.6a2.092,2.092,0,0,1,2.092-2.092Z" transform="translate(-2798 -352)" fill="#538ebd" stroke="#538ebd" stroke-width="0.5" fill-rule="evenodd"/>
    <path id="Path_226" data-name="Path 226" d="M90.821,129.038l.559-.508,1.017,1.117-.558.509-12.47,11.357L66.9,130.156l-.558-.509,1.017-1.117.559.508,11.452,10.43Z" transform="translate(-2808.254 -362.738)" fill="#538ebd" stroke="#538ebd" stroke-width="0.5"/>
  </g>
</svg>
