<svg xmlns="http://www.w3.org/2000/svg" width="18.503" height="12.97" viewBox="0 0 18.503 12.97">
  <g id="Group_844" data-name="Group 844" transform="translate(2742.92 235.25)">
    <path id="Path_225" data-name="Path 225" d="M57.683,117h13.3a2.353,2.353,0,0,1,2.353,2.353V129.47h-18V119.353A2.353,2.353,0,0,1,57.683,117Zm0,.987h13.3a1.366,1.366,0,0,1,1.366,1.366v9.13H56.317v-9.13a1.366,1.366,0,0,1,1.366-1.366Z" transform="translate(-2798 -352)" fill="#fff" stroke="#fff" stroke-width="0.5" fill-rule="evenodd"/>
    <path id="Path_226" data-name="Path 226" d="M82.326,128.862l.365-.332.664.729-.365.332-8.143,7.416L66.7,129.592l-.365-.332L67,128.53l.365.332,7.478,6.811Z" transform="translate(-2808.516 -363.013)" fill="#fff" stroke="#fff" stroke-width="0.5"/>
  </g>
</svg>
