<svg xmlns="http://www.w3.org/2000/svg" width="11.666" height="21.959" viewBox="0 0 11.666 21.959">
  <path id="Path_168" data-name="Path 168" d="M35.06,23.507l8.01,8.584-8.01,8.584a1.425,1.425,0,0,0-.01,1.987,1.34,1.34,0,0,0,1.936-.01L45.9,33.1c.006-.006.014-.011.021-.017a1.4,1.4,0,0,0,.394-.95c0-.014,0-.027,0-.04s0-.027,0-.04a1.4,1.4,0,0,0-.394-.95c-.006-.006-.014-.011-.021-.017l-8.913-9.552a1.34,1.34,0,0,0-1.936-.01A1.425,1.425,0,0,0,35.06,23.507Z" transform="translate(-34.651 -21.112)" fill="#295c8d" fill-rule="evenodd"/>
</svg>
