<svg xmlns="http://www.w3.org/2000/svg" width="161.898" height="161.898" viewBox="0 0 161.898 161.898">
  <g id="noun_Fingerprint_231502" transform="translate(-16 -16)">
    <path id="Path_27" data-name="Path 27" d="M71.164,131.008a3.649,3.649,0,0,1-.8-.088,3.574,3.574,0,0,1-2.778-3.481,3.514,3.514,0,0,1,.09-.8,252.6,252.6,0,0,0,5.881-55.136,3.571,3.571,0,1,1,7.143,0,259.848,259.848,0,0,1-6.059,56.722A3.578,3.578,0,0,1,71.164,131.008Zm14.73-.44A3.57,3.57,0,0,1,82.318,127a3.714,3.714,0,0,1,.069-.7A279.58,279.58,0,0,0,87.6,82.65a3.608,3.608,0,0,1,3.712-3.426,3.57,3.57,0,0,1,3.428,3.567c0,.05,0,.1,0,.145A287.131,287.131,0,0,1,89.389,127.7,3.569,3.569,0,0,1,85.894,130.567Zm-28.623-3.088a3.742,3.742,0,0,1-.74-.076,3.576,3.576,0,0,1-2.836-3.49,3.615,3.615,0,0,1,.079-.743c1.224-5.795,2.236-11.561,3.014-17.14a3.572,3.572,0,0,1,7.076.986c-.8,5.74-1.843,11.671-3.1,17.628A3.578,3.578,0,0,1,57.271,127.479Zm42.177-1.157a3.747,3.747,0,0,1-.626-.052,3.577,3.577,0,0,1-2.9-4.138,293.105,293.105,0,0,0,4.433-50.712A23.282,23.282,0,0,0,57.41,58.953a3.571,3.571,0,1,1-6.024-3.838,30.425,30.425,0,0,1,56.117,16.3,300.385,300.385,0,0,1-4.54,51.955A3.575,3.575,0,0,1,99.448,126.322ZM45.8,121a3.747,3.747,0,0,1-.683-.064,3.575,3.575,0,0,1-2.893-3.5,3.492,3.492,0,0,1,.067-.681,238.79,238.79,0,0,0,4.355-45.334,3.571,3.571,0,0,1,7.143,0A245.992,245.992,0,0,1,49.3,118.108,3.573,3.573,0,0,1,45.8,121Zm67.854-4.452a3.352,3.352,0,0,1-.486-.033,3.57,3.57,0,0,1-3.057-4.019A306.524,306.524,0,0,0,112.9,71.419a3.571,3.571,0,1,1,7.143,0,313.392,313.392,0,0,1-2.85,42.041A3.578,3.578,0,0,1,113.652,116.549ZM34.958,110.23a3.621,3.621,0,0,1-.552-.043,3.572,3.572,0,0,1-3.024-3.521,3.653,3.653,0,0,1,.043-.555,226.452,226.452,0,0,0,2.683-33.877c.079-21.4,14.9-39.525,35.246-43.1a43.075,43.075,0,0,1,49,30.344,3.5,3.5,0,0,1,.143.993,3.57,3.57,0,0,1-7,1,35.959,35.959,0,0,0-40.9-25.3C53.657,39.147,41.32,54.323,41.253,72.26a234.126,234.126,0,0,1-2.767,34.951A3.583,3.583,0,0,1,34.958,110.23Zm26.494-9.473a3.114,3.114,0,0,1-.364-.019,3.571,3.571,0,0,1-3.212-3.547,3.114,3.114,0,0,1,.019-.364,253.191,253.191,0,0,0,1.283-25.406,17.9,17.9,0,1,1,35.791,0,3.571,3.571,0,0,1-7.143,0,10.753,10.753,0,1,0-21.506,0A260.507,260.507,0,0,1,65,97.547,3.574,3.574,0,0,1,61.452,100.756Z" transform="translate(21.24 17.218)" fill="#01b72c"/>
    <g id="Group_37" data-name="Group 37" transform="translate(16 16)">
      <path id="Path_28" data-name="Path 28" d="M110.682,70.119a3.571,3.571,0,0,1-3.571-3.571V33.64a10.509,10.509,0,0,0-10.5-10.5H65.662a3.571,3.571,0,0,1,0-7.143H96.613a17.661,17.661,0,0,1,17.64,17.64V66.548A3.571,3.571,0,0,1,110.682,70.119Z" transform="translate(47.645 -16)" fill="#01b72c"/>
      <path id="Path_29" data-name="Path 29" d="M19.571,70.119A3.57,3.57,0,0,1,16,66.548V33.64A17.661,17.661,0,0,1,33.64,16H64.591a3.571,3.571,0,1,1,0,7.143H33.64a10.509,10.509,0,0,0-10.5,10.5V66.548A3.57,3.57,0,0,1,19.571,70.119Z" transform="translate(-16 -16)" fill="#01b72c"/>
      <path id="Path_30" data-name="Path 30" d="M96.613,113.118H65.662a3.571,3.571,0,1,1,0-7.143H96.613a10.509,10.509,0,0,0,10.5-10.5V66.484a3.571,3.571,0,1,1,7.143,0V95.478A17.661,17.661,0,0,1,96.613,113.118Z" transform="translate(47.645 48.78)" fill="#01b72c"/>
      <path id="Path_31" data-name="Path 31" d="M64.591,113.118H33.64A17.661,17.661,0,0,1,16,95.478V66.484a3.571,3.571,0,1,1,7.143,0V95.478a10.509,10.509,0,0,0,10.5,10.5H64.591a3.571,3.571,0,1,1,0,7.143Z" transform="translate(-16 48.78)" fill="#01b72c"/>
    </g>
  </g>
</svg>
