<svg xmlns="http://www.w3.org/2000/svg" width="33" height="33" viewBox="0 0 33 33">
  <g id="Group_861" data-name="Group 861" transform="translate(-821 -584)">
    <path id="Path_229" data-name="Path 229" d="M16.5,2.888A13.613,13.613,0,1,1,2.888,16.5,13.613,13.613,0,0,1,16.5,2.888M16.5,0A16.5,16.5,0,1,0,33,16.5,16.5,16.5,0,0,0,16.5,0Z" transform="translate(821 584)" fill="#018c21"/>
    <path id="Path_230" data-name="Path 230" d="M15.055,11.106l-7.982,4.6a.516.516,0,0,1-.763-.454V6.033a.516.516,0,0,1,.784-.454l7.982,4.62a.516.516,0,0,1-.021.908Z" transform="translate(827.704 589.847)" fill="#018c21"/>
  </g>
</svg>
