<svg id="Group_688" data-name="Group 688" xmlns="http://www.w3.org/2000/svg" width="82.192" height="83" viewBox="0 0 82.192 83">
  <path id="Path_117" data-name="Path 117" d="M72.587,29.915h-18.2V10.932a10.166,10.166,0,0,0-2.978-7.254h0A10.166,10.166,0,0,0,44.113.66H10.952A10.286,10.286,0,0,0,.68,10.932V33.039A10.286,10.286,0,0,0,10.952,43.312h.741v6.314a4.726,4.726,0,0,0,2.992,4.435,4.911,4.911,0,0,0,1.774.344,4.673,4.673,0,0,0,3.349-1.416l9.266-9.266V62.255A10.3,10.3,0,0,0,39.413,72.593H54.054l9.677,9.624A4.713,4.713,0,0,0,67.12,83.66a4.911,4.911,0,0,0,1.774-.344,4.726,4.726,0,0,0,2.952-4.408V72.593h.741A10.286,10.286,0,0,0,82.872,62.321V40.188A10.286,10.286,0,0,0,72.587,29.915Zm-43.9,9.425a1.986,1.986,0,0,0-1.4.582l-10.3,10.246a.7.7,0,0,1-.807.185.741.741,0,0,1-.477-.728v-8.3a1.986,1.986,0,0,0-1.986-1.986H10.952a6.3,6.3,0,0,1-6.3-6.3V10.932a6.3,6.3,0,0,1,6.3-6.3h33.16A6.248,6.248,0,0,1,48.56,6.485h0a6.248,6.248,0,0,1,1.853,4.448V33.039a6.3,6.3,0,0,1-6.3,6.3ZM78.875,62.294a6.314,6.314,0,0,1-6.288,6.328h-2.78a1.986,1.986,0,0,0-1.986,1.986v8.3a.755.755,0,0,1-1.324.53L56.212,69.2a1.985,1.985,0,0,0-1.39-.582H39.413a6.314,6.314,0,0,1-6.314-6.3V43.312H44.113a10.286,10.286,0,0,0,10.233-9.425H72.587a6.314,6.314,0,0,1,6.314,6.3Z" transform="translate(-0.68 -0.66)" fill="#9478ec"/>
  <path id="Path_118" data-name="Path 118" d="M22.014,7.9a10.262,10.262,0,0,0-1.708.2,6.95,6.95,0,0,0-3.6,1.827,2.489,2.489,0,0,0-.132,3.442c.715.821,1.774.807,2.912,0a1.444,1.444,0,0,1,.225-.172,3.971,3.971,0,0,1,2.846-.781,2.012,2.012,0,0,1,1.88,1.324,1.8,1.8,0,0,1-.715,2.039,10.842,10.842,0,0,1-.966.728,5.56,5.56,0,0,0-2.211,5.957c.278,1.046.768,1.6,1.416,1.6s1.1-.5,1.39-1.536a5.03,5.03,0,0,1,1.694-2.648c.688-.556,1.43-1.046,2.118-1.6a5.176,5.176,0,0,0,1.324-6.831C27.071,8.933,24.781,8.032,22.014,7.9Z" transform="translate(4.262 1.683)" fill="#9478ec"/>
  <path id="Path_119" data-name="Path 119" d="M21.433,21.422a2.37,2.37,0,0,0-2.581,2.5,2.489,2.489,0,0,0,2.542,2.648,2.515,2.515,0,0,0,2.648-2.648,2.4,2.4,0,0,0-2.608-2.5Z" transform="translate(5.202 6.059)" fill="#9478ec"/>
  <path id="Path_120" data-name="Path 120" d="M33.9,37.09a2.926,2.926,0,1,0,2.925,2.926A2.926,2.926,0,0,0,33.9,37.09Z" transform="translate(9.127 11.136)" fill="#9478ec"/>
  <path id="Path_121" data-name="Path 121" d="M43.172,37.09a2.926,2.926,0,1,0,2.077.852A2.926,2.926,0,0,0,43.172,37.09Z" transform="translate(12.135 11.136)" fill="#9478ec"/>
  <path id="Path_122" data-name="Path 122" d="M52.453,37.09a2.939,2.939,0,1,0,2.1.842A2.926,2.926,0,0,0,52.453,37.09Z" transform="translate(15.152 11.136)" fill="#9478ec"/>
</svg>
