<svg xmlns="http://www.w3.org/2000/svg" width="32.384" height="22" viewBox="0 0 32.384 22">
  <g id="Send" transform="translate(-1591.614 -514.28)">
    <path id="Path_2029" data-name="Path 2029" d="M1622.046,514.481a2.4,2.4,0,0,1,1.15.248,1.074,1.074,0,0,1,.563,1.212c-.207.86-.438,1.715-.684,2.565q-1.55,5.362-3.115,10.72c-.05.173-.107.343-.165.513a1.341,1.341,0,0,1-1.542.906c-1.141-.237-2.274-.507-3.413-.75-1.061-.226-2.127-.428-3.189-.653a.663.663,0,0,0-.674.2c-1.2,1.184-2.409,2.356-3.62,3.528q-1.385,1.341-2.782,2.671a1.245,1.245,0,0,1-1.856,0,1.193,1.193,0,0,1-.364-.628c-.574-2.5-1.16-4.993-1.722-7.493a.581.581,0,0,0-.546-.522c-2.1-.375-4.2-.768-6.3-1.159-.445-.083-.889-.172-1.329-.274a.915.915,0,0,1-.586-1.128,1.224,1.224,0,0,1,.785-.764c3.592-1.159,7.177-2.34,10.773-3.488q7.115-2.273,14.243-4.5c1.181-.371,2.373-.707,3.564-1.044A7.209,7.209,0,0,1,1622.046,514.481Zm.091,2.48c-.525.246-13.889,10.068-14.036,10.317.194.039.382.079.571.115,1.995.375,3.993.736,5.984,1.13,1.207.239,2.4.531,3.607.794.281.062.292.054.375-.222q.415-1.4.819-2.8,1.314-4.547,2.624-9.094C1622.1,517.129,1622.115,517.054,1622.136,516.962Zm-27.838,7.617c.079.019.146.039.215.051,2.087.39,4.175.777,6.261,1.173a.661.661,0,0,0,.473-.068q6.892-3.717,13.936-7.139c1.636-.792,3.291-1.543,4.937-2.312.06-.028.117-.063.176-.094C1619.662,516.235,1594.583,524.346,1594.3,524.579Zm9.279,9.906.057.007c.028-.079.059-.157.082-.238q.225-.777.447-1.555.712-2.507,1.421-5.014a.905.905,0,0,1,.351-.512c1.016-.742,2.021-1.5,3.042-2.236q4.328-3.117,8.666-6.221c.217-.156.428-.321.642-.481l-.028-.045c-.1.049-.2.1-.3.148-2.563,1.348-5.131,2.687-7.689,4.046-2.74,1.456-5.469,2.932-8.2,4.4a.25.25,0,0,0-.157.326c.43,1.909.85,3.82,1.277,5.73C1603.311,533.388,1603.447,533.936,1603.577,534.485Zm1.971-1.723.058.033c1.334-1.276,2.67-2.55,3.976-3.9-.1-.026-.142-.041-.188-.048-.827-.137-1.654-.27-2.48-.411-.164-.028-.223.045-.261.189-.268,1-.542,2-.812,3C1605.741,532,1605.646,532.384,1605.548,532.762Z" transform="translate(0 0)" fill="#295c8d" stroke="#295c8d" stroke-width="0.4"/>
  </g>
</svg>
