<svg xmlns="http://www.w3.org/2000/svg" width="54" height="54" viewBox="0 0 54 54">
  <defs>
    <style>
      .cls-1 {
        fill: #212121;
      }
    </style>
  </defs>
  <g id="noun_Business_2910286" transform="translate(-16 -16)">
    <g id="Group_35" data-name="Group 35" transform="translate(16 16)">
      <g id="Group_34" data-name="Group 34" transform="translate(0 0)">
        <path id="Path_13" data-name="Path 13" class="cls-1" d="M140.625,126a14.625,14.625,0,1,0,14.625,14.625A14.642,14.642,0,0,0,140.625,126Zm-1.125,2.3v11.2H128.3A12.4,12.4,0,0,1,139.5,128.3ZM128.3,141.75h11.2v11.2A12.4,12.4,0,0,1,128.3,141.75Zm13.448,11.2V142.231l10.071,3.662A12.4,12.4,0,0,1,141.75,152.948Zm10.842-9.169-10.842-3.943V128.3A12.39,12.39,0,0,1,152.592,143.78Z" transform="translate(-113.625 -113.625)"/>
        <path id="Path_14" data-name="Path 14" class="cls-1" d="M68.875,38.5H65.048a22.55,22.55,0,0,0-3.277-7.907l2.708-2.708a1.125,1.125,0,0,0,0-1.591l-4.773-4.773a1.125,1.125,0,0,0-1.591,0l-2.708,2.708A22.544,22.544,0,0,0,47.5,20.952V17.125A1.125,1.125,0,0,0,46.375,16h-6.75A1.125,1.125,0,0,0,38.5,17.125v3.827a22.546,22.546,0,0,0-7.907,3.277l-2.708-2.708a1.125,1.125,0,0,0-1.591,0l-4.773,4.773a1.125,1.125,0,0,0,0,1.591l2.708,2.708A22.548,22.548,0,0,0,20.952,38.5H17.125A1.125,1.125,0,0,0,16,39.625v6.75A1.125,1.125,0,0,0,17.125,47.5h3.827a22.55,22.55,0,0,0,3.277,7.907l-2.708,2.708a1.125,1.125,0,0,0,0,1.591l4.773,4.773a1.125,1.125,0,0,0,1.591,0l2.708-2.708A22.552,22.552,0,0,0,38.5,65.048v3.827A1.125,1.125,0,0,0,39.625,70h6.75A1.125,1.125,0,0,0,47.5,68.875V65.048a22.55,22.55,0,0,0,7.907-3.277l2.708,2.708a1.125,1.125,0,0,0,1.591,0l4.773-4.773a1.125,1.125,0,0,0,0-1.591l-2.708-2.707A22.552,22.552,0,0,0,65.048,47.5h3.827A1.125,1.125,0,0,0,70,46.375v-6.75A1.125,1.125,0,0,0,68.875,38.5ZM67.75,45.25H64.109A1.125,1.125,0,0,0,63,46.2a20.255,20.255,0,0,1-3.6,8.679,1.125,1.125,0,0,0,.115,1.456l2.576,2.576L58.91,62.092l-2.576-2.576a1.124,1.124,0,0,0-1.456-.115A20.256,20.256,0,0,1,46.2,63a1.125,1.125,0,0,0-.949,1.111V67.75h-4.5V64.109A1.125,1.125,0,0,0,39.8,63a20.254,20.254,0,0,1-8.679-3.6,1.125,1.125,0,0,0-1.456.115L27.09,62.092,23.908,58.91l2.576-2.576a1.125,1.125,0,0,0,.115-1.456A20.257,20.257,0,0,1,23,46.2a1.125,1.125,0,0,0-1.111-.949H18.25v-4.5h3.641A1.125,1.125,0,0,0,23,39.8a20.253,20.253,0,0,1,3.6-8.679,1.125,1.125,0,0,0-.115-1.456L23.908,27.09l3.182-3.182,2.576,2.576a1.125,1.125,0,0,0,1.456.115A20.252,20.252,0,0,1,39.8,23a1.125,1.125,0,0,0,.949-1.111V18.25h4.5v3.641A1.125,1.125,0,0,0,46.2,23a20.256,20.256,0,0,1,8.679,3.6,1.125,1.125,0,0,0,1.456-.115l2.576-2.576,3.182,3.182-2.576,2.576a1.125,1.125,0,0,0-.115,1.456A20.255,20.255,0,0,1,63,39.8a1.125,1.125,0,0,0,1.111.949H67.75Z" transform="translate(-16 -16)"/>
      </g>
    </g>
  </g>
</svg>
